<svg width="40" height="32" viewBox="0 0 40 32" fill="none" xmlns="http://www.w3.org/2000/svg">
<mask id="path-1-inside-1_98_400" fill="white">
<path fill-rule="evenodd" clip-rule="evenodd" d="M2.94994 4.5761C7.01465 0.104202 13.9953 -1.21132 19.4862 1.16725C23.6274 0.645825 27.8172 1.43766 31.1706 3.68368C34.524 5.92967 36.4376 9.22567 36.8554 12.8006C40.8787 16.7942 41.0898 22.9266 37.0249 27.3986C33.0238 31.8006 26.1971 33.1442 20.7473 30.9163C16.474 31.544 12.118 30.7755 8.65422 28.4556C5.19045 26.1357 3.26282 22.6954 2.93301 18.9847C-0.909355 14.9886 -1.05113 8.97797 2.94994 4.5761ZM21.6278 20.0392V10.5633H24.4888C25.8774 10.5633 27.003 9.43763 27.003 8.04905H21.6278H18.0403H15.2633C13.8748 8.04905 12.7491 9.17472 12.7491 10.5633H18.0403V23.6267C20.0216 23.6267 21.6278 22.0206 21.6278 20.0392Z"/>
</mask>
<path fill-rule="evenodd" clip-rule="evenodd" d="M2.94994 4.5761C7.01465 0.104202 13.9953 -1.21132 19.4862 1.16725C23.6274 0.645825 27.8172 1.43766 31.1706 3.68368C34.524 5.92967 36.4376 9.22567 36.8554 12.8006C40.8787 16.7942 41.0898 22.9266 37.0249 27.3986C33.0238 31.8006 26.1971 33.1442 20.7473 30.9163C16.474 31.544 12.118 30.7755 8.65422 28.4556C5.19045 26.1357 3.26282 22.6954 2.93301 18.9847C-0.909355 14.9886 -1.05113 8.97797 2.94994 4.5761ZM21.6278 20.0392V10.5633H24.4888C25.8774 10.5633 27.003 9.43763 27.003 8.04905H21.6278H18.0403H15.2633C13.8748 8.04905 12.7491 9.17472 12.7491 10.5633H18.0403V23.6267C20.0216 23.6267 21.6278 22.0206 21.6278 20.0392Z" fill="url(#paint0_linear_98_400)"/>
<path d="M19.4862 1.16725L19.0887 2.08486L19.3397 2.19359L19.6111 2.15942L19.4862 1.16725ZM2.94994 4.5761L3.68993 5.24871L2.94994 4.5761ZM31.1706 3.68368L30.6141 4.51453V4.51453L31.1706 3.68368ZM36.8554 12.8006L35.8622 12.9167L35.9028 13.264L36.1509 13.5103L36.8554 12.8006ZM37.0249 27.3986L36.2849 26.726L37.0249 27.3986ZM20.7473 30.9163L21.1257 29.9907L20.8725 29.8872L20.6019 29.9269L20.7473 30.9163ZM8.65422 28.4556L8.09774 29.2865L8.65422 28.4556ZM2.93301 18.9847L3.92908 18.8962L3.89791 18.5454L3.65384 18.2916L2.93301 18.9847ZM21.6278 10.5633V9.5633H20.6278V10.5633H21.6278ZM27.003 8.04905H28.003V7.04905H27.003V8.04905ZM12.7491 10.5633H11.7491V11.5633H12.7491V10.5633ZM18.0403 10.5633H19.0403V9.5633H18.0403V10.5633ZM18.0403 23.6267H17.0403V24.6267H18.0403V23.6267ZM19.8837 0.249646C14.0213 -2.28983 6.57755 -0.901647 2.20995 3.90348L3.68993 5.24871C7.45175 1.11005 13.9692 -0.132814 19.0887 2.08486L19.8837 0.249646ZM31.7271 2.85282C28.1427 0.452066 23.7022 -0.371483 19.3613 0.175085L19.6111 2.15942C23.5527 1.66313 27.4918 2.42326 30.6141 4.51453L31.7271 2.85282ZM37.8487 12.6845C37.3967 8.81773 35.3227 5.26103 31.7271 2.85282L30.6141 4.51453C33.7253 6.59831 35.4784 9.63361 35.8622 12.9167L37.8487 12.6845ZM37.7649 28.0713C42.1806 23.2132 41.9725 16.471 37.5599 12.0909L36.1509 13.5103C39.7848 17.1174 39.9989 22.64 36.2849 26.726L37.7649 28.0713ZM20.3689 31.842C26.1846 34.2194 33.4648 32.8022 37.7649 28.0713L36.2849 26.726C32.5828 30.7991 26.2096 32.0689 21.1257 29.9907L20.3689 31.842ZM8.09774 29.2865C11.8 31.7662 16.4153 32.5634 20.8926 31.9057L20.6019 29.9269C16.5327 30.5247 12.4359 29.7849 9.21071 27.6248L8.09774 29.2865ZM1.93693 19.0732C2.29354 23.0854 4.38296 26.7984 8.09774 29.2865L9.21071 27.6248C5.99793 25.4729 4.2321 22.3055 3.92908 18.8962L1.93693 19.0732ZM2.20995 3.90348C-2.13529 8.684 -2.00487 15.2921 2.21218 19.6778L3.65384 18.2916C0.186159 14.6852 0.0330295 9.27194 3.68993 5.24871L2.20995 3.90348ZM20.6278 10.5633V20.0392H22.6278V10.5633H20.6278ZM24.4888 9.5633H21.6278V11.5633H24.4888V9.5633ZM26.003 8.04905C26.003 8.88534 25.3251 9.5633 24.4888 9.5633V11.5633C26.4297 11.5633 28.003 9.98991 28.003 8.04905H26.003ZM21.6278 9.04905H27.003V7.04905H21.6278V9.04905ZM18.0403 9.04905H21.6278V7.04905H18.0403V9.04905ZM15.2633 9.04905H18.0403V7.04905H15.2633V9.04905ZM13.7491 10.5633C13.7491 9.727 14.427 9.04905 15.2633 9.04905V7.04905C13.3225 7.04905 11.7491 8.62243 11.7491 10.5633H13.7491ZM18.0403 9.5633H12.7491V11.5633H18.0403V9.5633ZM19.0403 23.6267V10.5633H17.0403V23.6267H19.0403ZM20.6278 20.0392C20.6278 21.4683 19.4694 22.6267 18.0403 22.6267V24.6267C20.5739 24.6267 22.6278 22.5728 22.6278 20.0392H20.6278Z" fill="#85A9EE" mask="url(#path-1-inside-1_98_400)"/>
<defs>
<linearGradient id="paint0_linear_98_400" x1="4.34525" y1="3.05733" x2="38.3919" y2="35.8202" gradientUnits="userSpaceOnUse">
<stop stop-color="#85A9EE"/>
<stop offset="1" stop-color="#A2BEF4" stop-opacity="0"/>
</linearGradient>
</defs>
</svg>
