<svg width="20" height="20" viewBox="0 0 20 20" fill="none" xmlns="http://www.w3.org/2000/svg">
<path d="M7.28984 18.125H6.24999C6.14551 18.125 6.0427 18.0987 5.95097 18.0487C5.85924 17.9987 5.78152 17.9265 5.7249 17.8387C5.66829 17.7508 5.63459 17.6502 5.6269 17.546C5.6192 17.4418 5.63775 17.3374 5.68085 17.2422L8.19882 11.6855L4.41796 11.6016L3.03906 13.2723C2.77617 13.6027 2.5664 13.75 2.03124 13.75H1.33125C1.22041 13.7536 1.11036 13.7304 1.0104 13.6824C0.91044 13.6343 0.823527 13.563 0.757026 13.4742C0.664058 13.3488 0.572652 13.1363 0.661714 12.8332L1.43593 10.0598C1.44179 10.0391 1.44882 10.0184 1.45664 9.99805C1.45702 9.99611 1.45702 9.99412 1.45664 9.99219C1.44857 9.97189 1.44166 9.95116 1.43593 9.93008L0.660933 7.13906C0.576948 6.8418 0.668745 6.63398 0.760933 6.51172C0.822837 6.42958 0.903152 6.36311 0.995419 6.31765C1.08769 6.2722 1.18933 6.24903 1.29218 6.25H2.03124C2.43085 6.25 2.81874 6.4293 3.04687 6.71875L4.39726 8.36133L8.19882 8.30508L5.68163 2.7582C5.63848 2.66307 5.61985 2.55863 5.62747 2.45444C5.63508 2.35025 5.66869 2.24963 5.72523 2.16178C5.78176 2.07393 5.85941 2.00165 5.95108 1.95155C6.04276 1.90146 6.14552 1.87514 6.24999 1.875H7.30116C7.44781 1.87795 7.59192 1.91389 7.72277 1.98016C7.85363 2.04644 7.96787 2.14134 8.05702 2.25781L12.9418 8.19531L15.1984 8.13594C15.3637 8.12695 15.8215 8.12383 15.9273 8.12383C18.0859 8.125 19.375 8.82578 19.375 10C19.375 10.3695 19.2273 11.0547 18.2394 11.4906C17.6562 11.7484 16.8781 11.8789 15.9266 11.8789C15.8219 11.8789 15.3652 11.8758 15.1976 11.8668L12.9414 11.8066L8.04452 17.7441C7.9553 17.8601 7.84115 17.9545 7.71053 18.0205C7.5799 18.0864 7.43613 18.1221 7.28984 18.125V18.125Z" fill="black"/>
</svg>
