<svg width="15" height="15" viewBox="0 0 15 15" fill="none" xmlns="http://www.w3.org/2000/svg">
<path d="M7.5 1.40625C7.25136 1.40625 7.0129 1.50502 6.83709 1.68084C6.66127 1.85665 6.5625 2.09511 6.5625 2.34375C6.5625 2.38406 6.57188 2.4225 6.57703 2.46094C4.95656 2.87484 3.75 4.34672 3.75 6.09375V10.3125C3.75 10.5778 3.54656 10.7812 3.28125 10.7812H2.8125V11.7188H6.18187C6.12557 11.8687 6.09575 12.0273 6.09375 12.1875C6.09375 12.9586 6.72891 13.5938 7.5 13.5938C8.27109 13.5938 8.90625 12.9586 8.90625 12.1875C8.90425 12.0273 8.87443 11.8687 8.81813 11.7188H12.1875V10.7812H11.7188C11.4534 10.7812 11.25 10.5778 11.25 10.3125V6.22547C11.25 4.46391 10.0725 2.89266 8.42297 2.46094C8.42812 2.4225 8.4375 2.38406 8.4375 2.34375C8.4375 2.09511 8.33873 1.85665 8.16291 1.68084C7.9871 1.50502 7.74864 1.40625 7.5 1.40625V1.40625ZM7.29469 3.28125C7.36266 3.27562 7.43062 3.28125 7.5 3.28125H7.58812C9.11859 3.32719 10.3125 4.66875 10.3125 6.22547V10.3125C10.3125 10.4775 10.3472 10.6331 10.4006 10.7812H4.59984C4.65599 10.6313 4.68565 10.4726 4.6875 10.3125V6.09375C4.68616 5.38216 4.95438 4.69647 5.43819 4.17465C5.922 3.65284 6.58549 3.33363 7.29516 3.28125H7.29469ZM7.5 11.7188C7.76391 11.7188 7.96875 11.9241 7.96875 12.1875C7.96875 12.4514 7.76344 12.6562 7.5 12.6562C7.23609 12.6562 7.03125 12.4509 7.03125 12.1875C7.03125 11.9236 7.23656 11.7188 7.5 11.7188Z" fill="#969393"/>
</svg>
