<svg width="15" height="15" viewBox="0 0 15 15" fill="none" xmlns="http://www.w3.org/2000/svg">
<path d="M9.09001 4.10999L7.50001 2.51999L5.91001 4.10999L5.49001 3.68999L7.50001 1.67999L9.51001 3.68999L9.09001 4.10999Z" fill="#969393"/>
<path d="M7.2 2.10001H7.8V8.40001H7.2V2.10001Z" fill="#969393"/>
<path d="M10.5 12H4.50001C3.99001 12 3.60001 11.61 3.60001 11.1V5.7C3.60001 5.19 3.99001 4.8 4.50001 4.8H6.60001V5.4H4.50001C4.32001 5.4 4.20001 5.52 4.20001 5.7V11.1C4.20001 11.28 4.32001 11.4 4.50001 11.4H10.5C10.68 11.4 10.8 11.28 10.8 11.1V5.7C10.8 5.52 10.68 5.4 10.5 5.4H8.40001V4.8H10.5C11.01 4.8 11.4 5.19 11.4 5.7V11.1C11.4 11.61 11.01 12 10.5 12Z" fill="#969393"/>
</svg>
